<svg width="328" height="54" viewBox="0 0 328 54" fill="none" xmlns="http://www.w3.org/2000/svg">
<g clip-path="url(#clip0_35209_15756)">
<rect width="328" height="54" rx="9" fill="#0077FF"/>
<path d="M11.5443 42.6503C14.0886 45.1946 18.1835 45.1946 26.3734 45.1946H27.8212C36.0111 45.1946 40.106 45.1946 42.6503 42.6503C45.1946 40.106 45.1946 36.011 45.1946 27.8211V26.3733C45.1946 18.1834 45.1946 14.0884 42.6503 11.5441C40.106 9 36.0111 9 27.8212 9H26.3734C18.1835 9 14.0886 9 11.5443 11.5441C9 14.0884 9 18.1834 9 26.3733V27.8211C9 36.011 9 40.106 11.5443 42.6503Z" fill="white"/>
<path fill-rule="evenodd" clip-rule="evenodd" d="M36.9444 33.0577L34.4988 32.4468C34.2044 32.3623 33.9964 32.0974 33.9859 31.7894L33.6807 22.7883C33.5925 21.5969 32.7081 20.6494 31.7839 20.3704C31.732 20.3547 31.6766 20.3758 31.6459 20.4205C31.6147 20.4658 31.6267 20.5286 31.6703 20.5623C31.8985 20.739 32.5266 21.3155 32.5266 22.3099L32.5248 34.0786C32.5248 35.2149 31.451 36.0484 30.3434 35.7717L27.86 35.1513C27.5846 35.055 27.3934 34.7985 27.3833 34.5028L27.0782 25.501C26.9899 24.3097 26.1056 23.3622 25.1814 23.0831C25.1295 23.0674 25.0741 23.0886 25.0434 23.1332C25.0121 23.1786 25.0242 23.2414 25.0678 23.2751C25.296 23.4517 25.9241 24.0282 25.9241 25.0226L25.9222 34.8324L25.9236 34.8327V36.7924C25.9236 37.9288 24.8498 38.7623 23.7422 38.4856L16.7278 36.7333C15.7526 36.4897 15.0688 35.6174 15.0688 34.6169L15.0688 22.8299C15.0688 21.6935 16.1427 20.86 17.2503 21.1367L21.6701 22.2408V20.116C21.6701 18.9796 22.7439 18.1462 23.8515 18.4229L28.2711 19.5269V17.402C28.2711 16.2657 29.3449 15.4322 30.4525 15.7089L37.4669 17.4611C38.4421 17.7047 39.1258 18.5771 39.1258 19.5776V31.3646C39.1258 32.501 38.052 33.3344 36.9444 33.0577Z" fill="#0077FF"/>
<path d="M65.5662 28.7937C68.2837 28.0949 70.0695 25.9985 70.0695 23.2551C70.0695 19.8647 67.3778 17.4837 63.5992 17.4837H56.8701V35.7298H59.9758V29.0266H62.1757L66.9896 35.7298H70.6389L65.5662 28.7937ZM63.5992 20.3306C65.5403 20.3306 66.8861 21.5211 66.8861 23.2551C66.8861 24.9892 65.5403 26.1797 63.5992 26.1797H59.9758V20.3306H63.5992Z" fill="white"/>
<path d="M77.6286 35.9886C79.2591 35.9886 80.7602 35.1346 81.6143 33.7111L82.2095 35.7298H84.4353V22.2717H81.459V30.0619C81.459 31.9771 80.1908 33.3229 78.4568 33.3229C76.7486 33.3229 75.5581 31.9771 75.5581 30.0619V22.2717H72.5818V30.3983C72.5818 33.6335 74.7558 35.9886 77.6286 35.9886Z" fill="white"/>
<path d="M93.9338 35.9886C97.376 35.9886 100.223 34.0217 100.223 30.7607C100.223 27.1114 97.2466 26.0503 94.6844 25.1703C92.6916 24.4974 90.9575 23.8763 90.9575 22.2458C90.9575 20.8223 92.2775 20.0718 93.8303 20.0718C95.4608 20.0718 96.6255 20.9258 97.2725 22.3752L100.223 21.8834C99.2912 19.0365 96.9361 17.2249 93.7268 17.2249C90.414 17.2249 87.7741 19.1401 87.7741 22.4011C87.7741 26.0762 90.7505 27.0855 93.3127 27.9396C95.2797 28.5867 97.0396 29.2078 97.0396 30.8642C97.0396 32.3135 95.7196 33.1417 93.9597 33.1417C91.941 33.1417 90.854 32.1841 89.8964 30.4501L86.8942 30.9677C87.7742 34.0476 90.5693 35.9886 93.9338 35.9886Z" fill="white"/>
<path d="M108.32 33.1417C107.31 33.1417 106.819 32.65 106.819 31.6406V24.8598H110.83V22.2717H106.819V18.3895H104.593L103.842 22.2717H101.642V24.8598H103.842V31.6406C103.842 34.2805 105.369 35.7298 108.32 35.7298H110.83L111.089 33.1417H108.32Z" fill="white"/>
<path d="M119.594 35.9886C123.813 35.9886 126.789 33.09 126.789 29.0007C126.789 24.9115 123.813 22.0129 119.594 22.0129C115.376 22.0129 112.399 24.9115 112.399 29.0007C112.399 33.09 115.376 35.9886 119.594 35.9886ZM119.594 33.2711C117.161 33.2711 115.505 31.5371 115.505 29.0007C115.505 26.4644 117.161 24.7304 119.594 24.7304C122.027 24.7304 123.683 26.4644 123.683 29.0007C123.683 31.5371 122.027 33.2711 119.594 33.2711Z" fill="white"/>
<path d="M132.353 35.7298V27.7843C132.353 26.0762 133.181 25.1186 134.993 25.1186H136.701L136.442 22.2717H135.873C134.294 22.2717 133.078 22.7116 132.172 24.2127L131.602 22.2717H129.377V35.7298H132.353Z" fill="white"/>
<path d="M151.346 28.8455C151.346 24.9633 148.447 22.0129 144.358 22.0129C140.269 22.0129 137.37 24.9374 137.37 29.0007C137.37 33.0641 140.269 35.9886 144.358 35.9886C147.153 35.9886 149.793 34.6687 150.803 32.1065L148.008 31.6406C147.36 32.5982 146.118 33.2711 144.539 33.2711C142.262 33.2711 140.761 31.8735 140.476 29.8031H151.294C151.32 29.5184 151.346 29.2078 151.346 28.8455ZM144.358 24.601C146.222 24.601 147.619 25.7915 148.111 27.4738H140.657C141.149 25.7397 142.547 24.601 144.358 24.601Z" fill="white"/>
<path d="M180.474 23.126C179.559 23.126 178.733 22.9113 177.996 22.482C177.268 22.0433 176.694 21.4413 176.274 20.676C175.863 19.9013 175.658 19.0287 175.658 18.058C175.658 17.0873 175.859 16.2193 176.26 15.454C176.671 14.6793 177.235 14.0773 177.954 13.648C178.682 13.2093 179.499 12.99 180.404 12.99C181.356 12.99 182.219 13.228 182.994 13.704C183.769 14.1707 184.324 14.796 184.66 15.58L183.708 15.734C183.381 15.1553 182.929 14.7073 182.35 14.39C181.781 14.0633 181.146 13.9 180.446 13.9C179.709 13.9 179.055 14.0773 178.486 14.432C177.917 14.7773 177.473 15.2673 177.156 15.902C176.839 16.5273 176.68 17.246 176.68 18.058C176.68 18.87 176.839 19.5933 177.156 20.228C177.483 20.8533 177.935 21.3433 178.514 21.698C179.093 22.0433 179.755 22.216 180.502 22.216C181.239 22.216 181.888 22.0527 182.448 21.726C183.008 21.3993 183.451 20.9327 183.778 20.326L184.73 20.48C184.385 21.292 183.825 21.936 183.05 22.412C182.285 22.888 181.426 23.126 180.474 23.126ZM191.486 23H190.268L187.244 19.794H186.81V23H185.9V15.86H186.81V18.954H187.258L190.086 15.86H191.206L188.028 19.332L191.486 23ZM194.65 15.72C195.471 15.72 196.12 16.0047 196.596 16.574C197.081 17.1433 197.324 17.9553 197.324 19.01V23H196.764L196.456 21.852C196.204 22.244 195.887 22.5567 195.504 22.79C195.131 23.0233 194.655 23.14 194.076 23.14C193.348 23.14 192.755 22.9347 192.298 22.524C191.841 22.104 191.612 21.5673 191.612 20.914C191.612 20.2327 191.878 19.696 192.41 19.304C192.942 18.9027 193.703 18.702 194.692 18.702H196.414C196.377 17.974 196.199 17.428 195.882 17.064C195.574 16.7 195.149 16.518 194.608 16.518C194.235 16.518 193.894 16.602 193.586 16.77C193.278 16.938 193.035 17.1807 192.858 17.498L192.004 17.358C192.209 16.854 192.55 16.4573 193.026 16.168C193.502 15.8693 194.043 15.72 194.65 15.72ZM194.202 22.342C194.855 22.342 195.387 22.132 195.798 21.712C196.209 21.2827 196.414 20.6433 196.414 19.794V19.542H194.692C193.255 19.542 192.536 19.9993 192.536 20.914C192.536 21.3527 192.685 21.7027 192.984 21.964C193.292 22.216 193.698 22.342 194.202 22.342ZM202.834 20.186C202.564 20.2887 202.26 20.368 201.924 20.424C201.598 20.48 201.285 20.508 200.986 20.508C200.184 20.508 199.554 20.284 199.096 19.836C198.648 19.388 198.424 18.7627 198.424 17.96V15.86H199.334V17.96C199.334 19.0987 199.904 19.668 201.042 19.668C201.322 19.668 201.621 19.6353 201.938 19.57C202.265 19.5047 202.564 19.4207 202.834 19.318V15.86H203.744V23H202.834V20.186ZM206.998 23H205.486V15.86H206.396V22.104H206.564L209.924 15.86H211.436V23H210.526V16.756H210.358L206.998 23ZM217.53 19.206C217.904 19.3647 218.198 19.598 218.412 19.906C218.627 20.214 218.734 20.5687 218.734 20.97C218.734 21.5673 218.506 22.0573 218.048 22.44C217.591 22.8133 217.003 23 216.284 23H213.176V15.86H216.2C216.863 15.86 217.409 16.0373 217.838 16.392C218.268 16.7373 218.482 17.1853 218.482 17.736C218.482 18.0533 218.398 18.338 218.23 18.59C218.072 18.842 217.838 19.0473 217.53 19.206ZM214.086 16.7V18.842H216.2C216.602 18.842 216.928 18.744 217.18 18.548C217.432 18.3427 217.558 18.0813 217.558 17.764C217.558 17.4467 217.432 17.19 217.18 16.994C216.928 16.798 216.602 16.7 216.2 16.7H214.086ZM216.284 22.16C216.732 22.16 217.096 22.0433 217.376 21.81C217.666 21.5767 217.81 21.278 217.81 20.914C217.81 20.55 217.666 20.256 217.376 20.032C217.096 19.7987 216.732 19.682 216.284 19.682H214.086V22.16H216.284ZM222.733 15.72C223.554 15.72 224.203 16.0047 224.679 16.574C225.164 17.1433 225.407 17.9553 225.407 19.01V23H224.847L224.539 21.852C224.287 22.244 223.97 22.5567 223.587 22.79C223.214 23.0233 222.738 23.14 222.159 23.14C221.431 23.14 220.838 22.9347 220.381 22.524C219.924 22.104 219.695 21.5673 219.695 20.914C219.695 20.2327 219.961 19.696 220.493 19.304C221.025 18.9027 221.786 18.702 222.775 18.702H224.497C224.46 17.974 224.282 17.428 223.965 17.064C223.657 16.7 223.232 16.518 222.691 16.518C222.318 16.518 221.977 16.602 221.669 16.77C221.361 16.938 221.118 17.1807 220.941 17.498L220.087 17.358C220.292 16.854 220.633 16.4573 221.109 16.168C221.585 15.8693 222.126 15.72 222.733 15.72ZM222.285 22.342C222.938 22.342 223.47 22.132 223.881 21.712C224.292 21.2827 224.497 20.6433 224.497 19.794V19.542H222.775C221.338 19.542 220.619 19.9993 220.619 20.914C220.619 21.3527 220.768 21.7027 221.067 21.964C221.375 22.216 221.781 22.342 222.285 22.342ZM228.58 23H227.068V15.86H227.978V22.104H228.146L231.506 15.86H233.018V23H232.108V16.756H231.94L228.58 23ZM230.05 14.782C229.518 14.782 229.07 14.642 228.706 14.362C228.342 14.0727 228.118 13.6433 228.034 13.074H228.846C228.902 13.3913 229.032 13.634 229.238 13.802C229.452 13.9607 229.723 14.04 230.05 14.04C230.376 14.04 230.642 13.9607 230.848 13.802C231.062 13.634 231.198 13.3913 231.254 13.074H232.066C231.982 13.6433 231.758 14.0727 231.394 14.362C231.03 14.642 230.582 14.782 230.05 14.782ZM237.446 23H236.536V16.7H234.058V15.86H239.924V16.7H237.446V23ZM247.391 19.724H241.231C241.287 20.4987 241.563 21.124 242.057 21.6C242.561 22.0667 243.196 22.3 243.961 22.3C244.503 22.3 244.983 22.188 245.403 21.964C245.823 21.7307 246.131 21.432 246.327 21.068L247.181 21.208C246.873 21.8333 246.43 22.314 245.851 22.65C245.273 22.9767 244.629 23.14 243.919 23.14C243.21 23.14 242.58 22.9813 242.029 22.664C241.479 22.3467 241.045 21.908 240.727 21.348C240.419 20.788 240.265 20.1487 240.265 19.43C240.265 18.7113 240.415 18.072 240.713 17.512C241.021 16.952 241.446 16.5133 241.987 16.196C242.529 15.8787 243.145 15.72 243.835 15.72C244.526 15.72 245.142 15.8787 245.683 16.196C246.225 16.5133 246.645 16.952 246.943 17.512C247.251 18.072 247.405 18.7113 247.405 19.43L247.391 19.724ZM243.835 16.56C243.154 16.56 242.58 16.7747 242.113 17.204C241.647 17.624 241.362 18.184 241.259 18.884H246.411C246.309 18.184 246.024 17.624 245.557 17.204C245.1 16.7747 244.526 16.56 243.835 16.56ZM252.742 15.86H257.362V23H256.452V16.7H253.582L253.316 20.774C253.27 21.53 253.083 22.104 252.756 22.496C252.43 22.8787 251.977 23.07 251.398 23.07C251.24 23.07 251.076 23.056 250.908 23.028L250.824 22.146C250.946 22.1553 251.081 22.16 251.23 22.16C251.66 22.16 251.954 22.0667 252.112 21.88C252.28 21.684 252.383 21.3247 252.42 20.802L252.742 15.86ZM264.625 15.72C265.325 15.72 265.946 15.8787 266.487 16.196C267.038 16.5133 267.467 16.952 267.775 17.512C268.083 18.072 268.237 18.7113 268.237 19.43C268.237 20.1487 268.083 20.788 267.775 21.348C267.467 21.908 267.038 22.3467 266.487 22.664C265.946 22.9813 265.325 23.14 264.625 23.14C263.972 23.14 263.379 23 262.847 22.72C262.325 22.44 261.905 22.048 261.587 21.544C261.27 21.04 261.083 20.4613 261.027 19.808H260.005V23H259.095V15.86H260.005V18.968H261.041C261.107 18.3333 261.298 17.7733 261.615 17.288C261.942 16.7933 262.362 16.4107 262.875 16.14C263.398 15.86 263.981 15.72 264.625 15.72ZM264.625 22.3C265.148 22.3 265.61 22.1787 266.011 21.936C266.413 21.6933 266.725 21.3573 266.949 20.928C267.173 20.4893 267.285 19.99 267.285 19.43C267.285 18.87 267.173 18.3753 266.949 17.946C266.725 17.5073 266.413 17.1667 266.011 16.924C265.61 16.6813 265.148 16.56 264.625 16.56C264.103 16.56 263.641 16.6813 263.239 16.924C262.838 17.1667 262.525 17.5073 262.301 17.946C262.077 18.3753 261.965 18.87 261.965 19.43C261.965 19.99 262.077 20.4893 262.301 20.928C262.525 21.3573 262.838 21.6933 263.239 21.936C263.641 22.1787 264.103 22.3 264.625 22.3ZM272.824 16.462C273.449 16.462 274.009 16.602 274.504 16.882C274.998 17.162 275.381 17.554 275.652 18.058C275.932 18.562 276.072 19.136 276.072 19.78C276.072 20.424 275.922 21.0027 275.624 21.516C275.334 22.0293 274.928 22.4307 274.406 22.72C273.883 23 273.286 23.14 272.614 23.14C271.484 23.14 270.621 22.776 270.024 22.048C269.725 21.684 269.51 21.264 269.38 20.788C269.258 20.312 269.198 19.6773 269.198 18.884C269.198 17.3533 269.482 16.182 270.052 15.37C270.63 14.558 271.62 14.0867 273.02 13.956C273.608 13.9 274.009 13.802 274.224 13.662C274.448 13.522 274.592 13.284 274.658 12.948L275.512 13.018C275.484 13.4753 275.358 13.83 275.134 14.082C274.919 14.334 274.644 14.5113 274.308 14.614C273.972 14.7167 273.552 14.7913 273.048 14.838C272.096 14.922 271.391 15.2067 270.934 15.692C270.476 16.1773 270.21 16.8353 270.136 17.666C270.434 17.302 270.812 17.0127 271.27 16.798C271.736 16.574 272.254 16.462 272.824 16.462ZM272.642 22.3C273.118 22.3 273.542 22.1973 273.916 21.992C274.298 21.7773 274.592 21.4787 274.798 21.096C275.012 20.7133 275.12 20.2793 275.12 19.794C275.12 19.0567 274.886 18.4593 274.42 18.002C273.962 17.5353 273.37 17.302 272.642 17.302C271.904 17.302 271.302 17.5307 270.836 17.988C270.378 18.4453 270.15 19.0473 270.15 19.794C270.15 20.5407 270.378 21.1473 270.836 21.614C271.302 22.0713 271.904 22.3 272.642 22.3ZM278.832 23H277.32V15.86H278.23V22.104H278.398L281.758 15.86H283.27V23H282.36V16.756H282.192L278.832 23ZM285.921 23H285.011V15.86H286.649L288.679 21.95H288.847L290.961 15.86H292.571V23H291.661V16.756H291.493L289.323 23H288.175L286.089 16.756H285.921V23ZM294.301 23V15.86H295.211V18.072H296.541C297.073 18.072 297.549 18.1793 297.969 18.394C298.389 18.5993 298.716 18.8887 298.949 19.262C299.183 19.6353 299.299 20.06 299.299 20.536C299.299 21.012 299.183 21.4367 298.949 21.81C298.716 22.1833 298.389 22.4773 297.969 22.692C297.549 22.8973 297.073 23 296.541 23H294.301ZM301.147 23H300.237V15.86H301.147V23ZM296.541 22.16C297.083 22.16 297.521 22.0107 297.857 21.712C298.203 21.404 298.375 21.012 298.375 20.536C298.375 20.06 298.203 19.6727 297.857 19.374C297.521 19.066 297.083 18.912 296.541 18.912H295.211V22.16H296.541ZM309.587 19.724H303.427C303.483 20.4987 303.758 21.124 304.253 21.6C304.757 22.0667 305.391 22.3 306.157 22.3C306.698 22.3 307.179 22.188 307.599 21.964C308.019 21.7307 308.327 21.432 308.523 21.068L309.377 21.208C309.069 21.8333 308.625 22.314 308.047 22.65C307.468 22.9767 306.824 23.14 306.115 23.14C305.405 23.14 304.775 22.9813 304.225 22.664C303.674 22.3467 303.24 21.908 302.923 21.348C302.615 20.788 302.461 20.1487 302.461 19.43C302.461 18.7113 302.61 18.072 302.909 17.512C303.217 16.952 303.641 16.5133 304.183 16.196C304.724 15.8787 305.34 15.72 306.031 15.72C306.721 15.72 307.337 15.8787 307.879 16.196C308.42 16.5133 308.84 16.952 309.139 17.512C309.447 18.072 309.601 18.7113 309.601 19.43L309.587 19.724ZM306.031 16.56C305.349 16.56 304.775 16.7747 304.309 17.204C303.842 17.624 303.557 18.184 303.455 18.884H308.607C308.504 18.184 308.219 17.624 307.753 17.204C307.295 16.7747 306.721 16.56 306.031 16.56ZM176.918 39H176.008V31.86H181.678V39H180.768V32.7H176.918V39ZM183.412 41.87V31.86H183.972L184.308 33.106C184.606 32.7047 184.98 32.3733 185.428 32.112C185.885 31.8507 186.431 31.72 187.066 31.72C187.738 31.72 188.34 31.8787 188.872 32.196C189.404 32.5133 189.819 32.9567 190.118 33.526C190.416 34.086 190.566 34.7207 190.566 35.43C190.566 36.1393 190.416 36.7787 190.118 37.348C189.819 37.908 189.404 38.3467 188.872 38.664C188.34 38.9813 187.738 39.14 187.066 39.14C186.44 39.14 185.899 39.014 185.442 38.762C184.994 38.5007 184.62 38.174 184.322 37.782V41.87H183.412ZM186.954 38.3C187.476 38.3 187.938 38.1787 188.34 37.936C188.741 37.6933 189.054 37.3573 189.278 36.928C189.502 36.4893 189.614 35.99 189.614 35.43C189.614 34.87 189.502 34.3753 189.278 33.946C189.054 33.5073 188.741 33.1667 188.34 32.924C187.938 32.6813 187.476 32.56 186.954 32.56C186.44 32.56 185.983 32.6813 185.582 32.924C185.19 33.1667 184.882 33.5073 184.658 33.946C184.434 34.3753 184.322 34.87 184.322 35.43C184.322 35.99 184.434 36.4893 184.658 36.928C184.882 37.3573 185.19 37.6933 185.582 37.936C185.983 38.1787 186.44 38.3 186.954 38.3ZM193.394 39H191.882V31.86H192.792V38.104H192.96L196.32 31.86H197.832V39H196.922V32.756H196.754L193.394 39ZM200.65 31.86H205.27V39H204.36V32.7H201.49L201.224 36.774C201.178 37.53 200.991 38.104 200.664 38.496C200.338 38.8787 199.885 39.07 199.306 39.07C199.148 39.07 198.984 39.056 198.816 39.028L198.732 38.146C198.854 38.1553 198.989 38.16 199.138 38.16C199.568 38.16 199.862 38.0667 200.02 37.88C200.188 37.684 200.291 37.3247 200.328 36.802L200.65 31.86ZM210.265 39.14C209.556 39.14 208.921 38.9813 208.361 38.664C207.801 38.3467 207.363 37.908 207.045 37.348C206.737 36.788 206.583 36.1487 206.583 35.43C206.583 34.7113 206.737 34.072 207.045 33.512C207.363 32.952 207.801 32.5133 208.361 32.196C208.921 31.8787 209.556 31.72 210.265 31.72C210.975 31.72 211.609 31.8787 212.169 32.196C212.729 32.5133 213.163 32.952 213.471 33.512C213.789 34.072 213.947 34.7113 213.947 35.43C213.947 36.1487 213.789 36.788 213.471 37.348C213.163 37.908 212.729 38.3467 212.169 38.664C211.609 38.9813 210.975 39.14 210.265 39.14ZM210.265 38.3C210.797 38.3 211.269 38.1787 211.679 37.936C212.099 37.6933 212.421 37.3573 212.645 36.928C212.879 36.4893 212.995 35.99 212.995 35.43C212.995 34.87 212.879 34.3753 212.645 33.946C212.421 33.5073 212.099 33.1667 211.679 32.924C211.269 32.6813 210.797 32.56 210.265 32.56C209.733 32.56 209.257 32.6813 208.837 32.924C208.427 33.1667 208.105 33.5073 207.871 33.946C207.647 34.3753 207.535 34.87 207.535 35.43C207.535 35.99 207.647 36.4893 207.871 36.928C208.105 37.3573 208.427 37.6933 208.837 37.936C209.257 38.1787 209.733 38.3 210.265 38.3ZM223.815 39H222.653L219.867 35.808H219.405V39H218.495V35.808H218.033L215.247 39H214.085L217.277 35.346L214.365 31.86H215.443L218.033 34.968H218.495V31.86H219.405V34.968H219.867L222.457 31.86H223.535L220.623 35.346L223.815 39ZM231.073 35.724H224.913C224.969 36.4987 225.244 37.124 225.739 37.6C226.243 38.0667 226.878 38.3 227.643 38.3C228.184 38.3 228.665 38.188 229.085 37.964C229.505 37.7307 229.813 37.432 230.009 37.068L230.863 37.208C230.555 37.8333 230.112 38.314 229.533 38.65C228.954 38.9767 228.31 39.14 227.601 39.14C226.892 39.14 226.262 38.9813 225.711 38.664C225.16 38.3467 224.726 37.908 224.409 37.348C224.101 36.788 223.947 36.1487 223.947 35.43C223.947 34.7113 224.096 34.072 224.395 33.512C224.703 32.952 225.128 32.5133 225.669 32.196C226.21 31.8787 226.826 31.72 227.517 31.72C228.208 31.72 228.824 31.8787 229.365 32.196C229.906 32.5133 230.326 32.952 230.625 33.512C230.933 34.072 231.087 34.7113 231.087 35.43L231.073 35.724ZM227.517 32.56C226.836 32.56 226.262 32.7747 225.795 33.204C225.328 33.624 225.044 34.184 224.941 34.884H230.093C229.99 34.184 229.706 33.624 229.239 33.204C228.782 32.7747 228.208 32.56 227.517 32.56ZM237.093 34.968V31.86H238.003V39H237.093V35.808H233.173V39H232.263V31.86H233.173V34.968H237.093ZM241.247 39H239.735V31.86H240.645V38.104H240.813L244.173 31.86H245.685V39H244.775V32.756H244.607L241.247 39ZM252.536 31.86V39H251.626V36.312H249.834L248.07 39H247.006L248.882 36.2C248.359 36.0507 247.944 35.7893 247.636 35.416C247.328 35.0333 247.174 34.59 247.174 34.086C247.174 33.6567 247.286 33.274 247.51 32.938C247.734 32.602 248.042 32.3407 248.434 32.154C248.835 31.958 249.288 31.86 249.792 31.86H252.536ZM251.626 35.472V32.7H249.792C249.288 32.7 248.877 32.8307 248.56 33.092C248.252 33.344 248.098 33.6753 248.098 34.086C248.098 34.4967 248.252 34.8327 248.56 35.094C248.877 35.346 249.288 35.472 249.792 35.472H251.626Z" fill="white"/>
<path d="M163 16L163 40" stroke="white"/>
</g>
<defs>
<clipPath id="clip0_35209_15756">
<rect width="328" height="54" fill="white"/>
</clipPath>
</defs>
</svg>
